<?xml version="1.0" standalone="no"?>
<svg xmlns="http://www.w3.org/2000/svg" viewBox="0 0 136.032 36" width="136.032" height="36"><g fill="#3299bb" color="#3299bb" transform="translate(0 4) scale(2.3333334)"><svg width="12.0" height="12.0" x="0.0" y="0.0" viewBox="0 0 12 12"><title></title><rect x="5" y="7" width="2" height="1"></rect><path d="M11,1V0H1V1H0V12H12V1ZM7,1V4H5V1ZM2,2V1H4V2H3V3H1V2Zm9,9H8V8H7v3H5V8H4v3H1V4H4V5H8V4h3Zm0-8H9V2H8V1h2V2h1Z"></path></svg></g><path fill="#424242" fill-rule="nonzero" d="M6.05 16.70L3.34 16.70Q3.24 16.70 3.24 16.58L3.24 16.58L3.24 2.90L0.12 2.90Q0 2.90 0 2.78L0 2.78L0.02 0.10Q0.02 0 0.12 0L0.12 0L9.24 0Q9.36 0 9.36 0.10L9.36 0.10L9.36 2.78Q9.36 2.90 9.26 2.90L9.26 2.90L6.12 2.90L6.14 16.58Q6.14 16.70 6.05 16.70L6.05 16.70ZM13.34 16.70L10.63 16.70Q10.54 16.70 10.54 16.58L10.54 16.58L10.56 0.10Q10.56 0 10.68 0L10.68 0L13.34 0Q13.46 0 13.46 0.10L13.46 0.10L13.44 6.62L17.04 6.62L17.04 0.10Q17.04 0 17.14 0L17.14 0L19.80 0Q19.92 0 19.92 0.10L19.92 0.10L19.97 16.58Q19.97 16.70 19.85 16.70L19.85 16.70L17.16 16.70Q17.04 16.70 17.04 16.58L17.04 16.58L17.04 9.53L13.44 9.53L13.44 16.58Q13.44 16.70 13.34 16.70L13.34 16.70ZM29.78 16.70L22.03 16.70Q21.94 16.70 21.94 16.58L21.94 16.58L21.96 0.10Q21.96 0 22.06 0L22.06 0L29.76 0Q29.86 0 29.86 0.12L29.86 0.12L29.86 2.81Q29.86 2.90 29.76 2.90L29.76 2.90L24.84 2.90L24.84 6.65L29.76 6.65Q29.86 6.65 29.86 6.74L29.86 6.74L29.88 9.46Q29.88 9.55 29.78 9.55L29.78 9.55L24.84 9.55L24.84 13.75L29.78 13.75Q29.88 13.75 29.88 13.87L29.88 13.87L29.88 16.61Q29.88 16.70 29.78 16.70L29.78 16.70ZM38.38 16.70L35.66 16.70Q35.57 16.70 35.57 16.58L35.57 16.58L35.62 0.10Q35.62 0 35.71 0L35.71 0L38.64 0Q38.74 0 38.81 0.10L38.81 0.10L40.99 3.26L43.18 0.10Q43.25 0 43.34 0L43.34 0L46.30 0Q46.39 0 46.39 0.10L46.39 0.10L46.44 16.58Q46.44 16.70 46.34 16.70L46.34 16.70L43.63 16.70Q43.54 16.70 43.54 16.58L43.54 16.58L43.51 4.34L40.99 7.99L38.50 4.34L38.47 16.58Q38.47 16.70 38.38 16.70L38.38 16.70ZM47.64 16.58L47.64 16.58L50.62 0.10Q50.64 0 50.74 0L50.74 0L54.22 0Q54.31 0 54.34 0.10L54.34 0.10L57.19 16.58Q57.22 16.70 57.10 16.70L57.10 16.70L54.43 16.70Q54.34 16.70 54.31 16.58L54.31 16.58L54.05 14.83L50.78 14.83L50.52 16.58Q50.50 16.70 50.40 16.70L50.40 16.70L47.74 16.70Q47.64 16.70 47.64 16.58ZM52.34 5.52L51.26 12.26L53.57 12.26L52.58 5.52L52.44 4.63L52.34 5.52ZM61.51 16.70L58.80 16.70Q58.70 16.70 58.70 16.58L58.70 16.58L58.75 0.10Q58.75 0 58.85 0L58.85 0L63.70 0Q64.99 0 66.08 0.64Q67.18 1.27 67.82 2.34Q68.47 3.41 68.47 4.75L68.47 4.75Q68.47 5.64 68.21 6.35Q67.94 7.06 67.58 7.55Q67.22 8.04 66.94 8.28L66.94 8.28Q68.23 9.72 68.23 11.66L68.23 11.66L68.26 16.58Q68.26 16.70 68.14 16.70L68.14 16.70L65.42 16.70Q65.33 16.70 65.33 16.63L65.33 16.63L65.33 11.66Q65.33 10.80 64.72 10.16Q64.10 9.53 63.22 9.53L63.22 9.53L61.63 9.53L61.61 16.58Q61.61 16.70 61.51 16.70L61.51 16.70ZM61.63 2.88L61.63 6.65L63.70 6.65Q64.44 6.65 65.02 6.10Q65.59 5.54 65.59 4.75L65.59 4.75Q65.59 3.98 65.03 3.43Q64.46 2.88 63.70 2.88L63.70 2.88L61.63 2.88ZM73.08 16.70L70.37 16.70Q70.27 16.70 70.27 16.58L70.27 16.58L70.32 0.12Q70.32 0 70.42 0L70.42 0L73.10 0Q73.20 0 73.20 0.12L73.20 0.12L73.20 5.81L76.97 0.10Q77.04 0 77.14 0L77.14 0L79.90 0Q79.99 0 79.94 0.10L79.94 0.10L75.79 6.72L80.45 16.61Q80.50 16.70 80.33 16.70L80.33 16.70L77.40 16.70Q77.28 16.70 77.26 16.61L77.26 16.61L74.02 9.55L73.18 10.87L73.18 16.58Q73.18 16.70 73.08 16.70L73.08 16.70ZM89.38 16.70L81.62 16.70Q81.53 16.70 81.53 16.58L81.53 16.58L81.55 0.10Q81.55 0 81.65 0L81.65 0L89.35 0Q89.45 0 89.45 0.12L89.45 0.12L89.45 2.81Q89.45 2.90 89.35 2.90L89.35 2.90L84.43 2.90L84.43 6.65L89.35 6.65Q89.45 6.65 89.45 6.74L89.45 6.74L89.47 9.46Q89.47 9.55 89.38 9.55L89.38 9.55L84.43 9.55L84.43 13.75L89.38 13.75Q89.47 13.75 89.47 13.87L89.47 13.87L89.47 16.61Q89.47 16.70 89.38 16.70L89.38 16.70ZM96.72 16.70L94.01 16.70Q93.91 16.70 93.91 16.58L93.91 16.58L93.91 2.90L90.79 2.90Q90.67 2.90 90.67 2.78L90.67 2.78L90.70 0.10Q90.70 0 90.79 0L90.79 0L99.91 0Q100.03 0 100.03 0.10L100.03 0.10L100.03 2.78Q100.03 2.90 99.94 2.90L99.94 2.90L96.79 2.90L96.82 16.58Q96.82 16.70 96.72 16.70L96.72 16.70Z" transform="translate(36, 9.648)"></path></svg>